<?xml version="1.0" encoding="utf-8"?>
<!-- Generator: Adobe Illustrator 25.0.1, SVG Export Plug-In . SVG Version: 6.00 Build 0)  -->
<svg version="1.1" id="Calque_1" xmlns="http://www.w3.org/2000/svg" xmlns:xlink="http://www.w3.org/1999/xlink" x="0px" y="0px"
	 viewBox="0 0 228 453" style="enable-background:new 0 0 228 453;" xml:space="preserve">
<style type="text/css">
	.st0{fill-rule:evenodd;clip-rule:evenodd;fill:#FFFFFF;}
	.st1{font-family:'Yomogi-Regular';}
	.st2{font-size:60px;}
	.st3{enable-background:new    ;}
</style>
<g>
	<g>
		
			<image style="overflow:visible;opacity:0.4;enable-background:new    ;" width="221" height="449" xlink:href="96FA4246.png"  transform="matrix(0.9973 0 0 0.9973 2.7877 5.0926)">
		</image>
		<g>
			<path class="st0" d="M203,90c-1.7,94.2,0.3,185.1,0,279.9c0,0.9,0,3.6-0.1,4.4c-3.9,29.6-22.5,48.2-50.9,57.2
				c-4,0.8-8,1.3-12,1.5c0,0-2,0-2.9,0c-36.2,0.1-73.2-0.1-109.1,0c-0.1-71.6,0.1-145.9,0.5-218c-0.1-4.7,0-7.9,2.1-12.6
				c0.4-1,1.1-2.7,1.4-3.4c9.5-23.3,26.8-36.8,52-40.5c11-0.3,22-0.7,33-1c36.6-9.3,53.4-32.8,50.5-70.5
				c-4.9-18.2-16.8-28.7-35.5-31.5c-14.3-0.7-28.7-0.7-43,0C63.9,61.2,51.4,77.1,51.5,103c-5.4,10.6-13.5,13.8-24.5,9.5
				c-8.6-6.8-11.4-15.7-8.5-26.5C24,56.1,40.9,35.6,69,24.5c6.2-2.1,12.5-3.5,19-4c15-0.7,30-0.7,45,0C173.4,26.4,196.7,49.5,203,90
				z"/>
		</g>
	</g>
	<text transform="matrix(1.0704 0 0 1 66.1 257.3)" class="st1 st2">404</text>
	<g>
		<g class="st3">
			<path d="M110.1,307v9.5l-7-6.5v6h-1.6v-9.5l7,6.5v-6H110.1z"/>
			<path d="M112.1,311.5c0.3-0.5,0.7-0.8,1.2-1.1c0.5-0.3,1.1-0.4,1.7-0.4s1.2,0.1,1.7,0.4s0.9,0.6,1.2,1.1s0.5,1,0.5,1.6
				s-0.2,1.1-0.5,1.6s-0.7,0.8-1.2,1.1c-0.5,0.3-1.1,0.4-1.7,0.4s-1.2-0.1-1.7-0.4s-0.9-0.6-1.2-1.1s-0.4-1-0.4-1.6
				S111.8,311.9,112.1,311.5z M113.4,314c0.2,0.3,0.4,0.5,0.7,0.7c0.3,0.2,0.6,0.2,1,0.2c0.3,0,0.7-0.1,1-0.2
				c0.3-0.2,0.5-0.4,0.7-0.7c0.2-0.3,0.2-0.6,0.2-1s-0.1-0.7-0.2-1c-0.2-0.3-0.4-0.5-0.7-0.7s-0.6-0.2-1-0.2s-0.7,0.1-1,0.2
				s-0.5,0.4-0.7,0.7s-0.2,0.6-0.2,1C113.2,313.4,113.3,313.8,113.4,314z"/>
			<path d="M121.7,314.7c0.2,0.2,0.5,0.3,0.9,0.3c0.3,0,0.5-0.1,0.7-0.2s0.4-0.3,0.5-0.5s0.2-0.4,0.2-0.7V310h1.5v5.9H124V315
				c-0.2,0.3-0.5,0.6-0.8,0.8s-0.7,0.3-1.1,0.3c-0.7,0-1.2-0.2-1.6-0.6s-0.6-1-0.6-1.7V310h1.5v3.6
				C121.4,314.1,121.5,314.5,121.7,314.7z"/>
			<path d="M128.3,314.6c0.2,0.2,0.4,0.3,0.6,0.3c0.2,0.1,0.4,0.1,0.6,0.1c0.3,0,0.5-0.1,0.6-0.2s0.2-0.3,0.2-0.5s-0.1-0.3-0.2-0.4
				s-0.3-0.2-0.5-0.3s-0.5-0.2-0.7-0.3c-0.3-0.1-0.6-0.2-0.8-0.4c-0.3-0.1-0.5-0.3-0.7-0.6s-0.3-0.5-0.3-0.9s0.1-0.7,0.3-0.9
				c0.2-0.2,0.5-0.4,0.8-0.5s0.7-0.2,1.1-0.2c0.3,0,0.7,0,1,0.1s0.6,0.2,0.8,0.4c0.2,0.2,0.5,0.3,0.6,0.5l-0.8,0.8
				c-0.2-0.2-0.5-0.4-0.8-0.6c-0.3-0.1-0.6-0.2-0.9-0.2c-0.2,0-0.4,0-0.5,0.1s-0.2,0.2-0.2,0.4c0,0.1,0.1,0.3,0.2,0.4
				c0.1,0.1,0.3,0.2,0.5,0.3c0.2,0.1,0.4,0.2,0.7,0.3c0.3,0.1,0.7,0.3,1,0.4c0.3,0.2,0.5,0.3,0.7,0.6c0.2,0.2,0.3,0.5,0.3,0.9
				c0,0.6-0.2,1-0.6,1.3c-0.4,0.3-1,0.5-1.7,0.5c-0.4,0-0.8-0.1-1.2-0.2s-0.7-0.3-1-0.5s-0.5-0.4-0.7-0.6l0.9-0.8
				C127.9,314.3,128.1,314.5,128.3,314.6z"/>
			<path d="M138.3,314.6c0.2,0.2,0.4,0.3,0.6,0.3c0.2,0.1,0.4,0.1,0.6,0.1c0.3,0,0.5-0.1,0.6-0.2s0.2-0.3,0.2-0.5s-0.1-0.3-0.2-0.4
				s-0.3-0.2-0.5-0.3s-0.5-0.2-0.7-0.3c-0.3-0.1-0.6-0.2-0.8-0.4c-0.3-0.1-0.5-0.3-0.7-0.6s-0.3-0.5-0.3-0.9s0.1-0.7,0.3-0.9
				c0.2-0.2,0.5-0.4,0.8-0.5s0.7-0.2,1.1-0.2c0.3,0,0.7,0,1,0.1s0.6,0.2,0.8,0.4c0.2,0.2,0.5,0.3,0.6,0.5l-0.8,0.8
				c-0.2-0.2-0.5-0.4-0.8-0.6c-0.3-0.1-0.6-0.2-0.9-0.2c-0.2,0-0.4,0-0.5,0.1s-0.2,0.2-0.2,0.4c0,0.1,0.1,0.3,0.2,0.4
				c0.1,0.1,0.3,0.2,0.5,0.3c0.2,0.1,0.4,0.2,0.7,0.3c0.3,0.1,0.7,0.3,1,0.4c0.3,0.2,0.5,0.3,0.7,0.6c0.2,0.2,0.3,0.5,0.3,0.9
				c0,0.6-0.2,1-0.6,1.3c-0.4,0.3-1,0.5-1.7,0.5c-0.4,0-0.8-0.1-1.2-0.2s-0.7-0.3-1-0.5s-0.5-0.4-0.7-0.6l0.9-0.8
				C137.9,314.3,138.1,314.5,138.3,314.6z"/>
			<path d="M143.2,311.5c0.3-0.5,0.7-0.8,1.2-1.1c0.5-0.3,1.1-0.4,1.7-0.4s1.2,0.1,1.7,0.4s0.9,0.6,1.2,1.1s0.5,1,0.5,1.6
				s-0.2,1.1-0.5,1.6s-0.7,0.8-1.2,1.1c-0.5,0.3-1.1,0.4-1.7,0.4s-1.2-0.1-1.7-0.4s-0.9-0.6-1.2-1.1s-0.4-1-0.4-1.6
				C142.7,312.5,142.9,311.9,143.2,311.5z M144.5,314c0.2,0.3,0.4,0.5,0.7,0.7s0.6,0.2,1,0.2c0.3,0,0.7-0.1,1-0.2
				c0.3-0.2,0.5-0.4,0.7-0.7c0.2-0.3,0.2-0.6,0.2-1s-0.1-0.7-0.2-1c-0.2-0.3-0.4-0.5-0.7-0.7s-0.6-0.2-1-0.2s-0.7,0.1-1,0.2
				s-0.5,0.4-0.7,0.7s-0.2,0.6-0.2,1S144.3,313.8,144.5,314z"/>
			<path d="M160,316h-1.5v-3.6c0-0.4-0.1-0.8-0.3-1s-0.4-0.3-0.8-0.3c-0.2,0-0.5,0.1-0.7,0.2s-0.3,0.3-0.4,0.5s-0.2,0.4-0.2,0.7v3.6
				h-1.5v-3.6c0-0.4-0.1-0.8-0.3-1s-0.4-0.3-0.8-0.3c-0.3,0-0.5,0.1-0.7,0.2s-0.3,0.3-0.4,0.5c-0.1,0.2-0.2,0.4-0.2,0.7v3.6H151
				v-5.9h1.5v0.9c0.2-0.3,0.4-0.6,0.7-0.7c0.3-0.2,0.6-0.3,1.1-0.3s0.9,0.1,1.2,0.3c0.3,0.2,0.5,0.4,0.7,0.8
				c0.2-0.3,0.5-0.6,0.8-0.8s0.7-0.3,1.1-0.3c0.5,0,0.8,0.1,1.1,0.3c0.3,0.2,0.5,0.4,0.7,0.8c0.1,0.3,0.2,0.8,0.2,1.2v3.5H160z"/>
			<path d="M171,316h-1.5v-3.6c0-0.4-0.1-0.8-0.3-1s-0.4-0.3-0.8-0.3c-0.2,0-0.5,0.1-0.7,0.2s-0.3,0.3-0.4,0.5s-0.2,0.4-0.2,0.7v3.6
				h-1.5v-3.6c0-0.4-0.1-0.8-0.3-1s-0.4-0.3-0.8-0.3c-0.3,0-0.5,0.1-0.7,0.2s-0.3,0.3-0.4,0.5c-0.1,0.2-0.2,0.4-0.2,0.7v3.6h-1.5
				v-5.9h1.5v0.9c0.2-0.3,0.4-0.6,0.7-0.7c0.3-0.2,0.6-0.3,1.1-0.3s0.9,0.1,1.2,0.3c0.3,0.2,0.5,0.4,0.7,0.8
				c0.2-0.3,0.5-0.6,0.8-0.8s0.7-0.3,1.1-0.3c0.5,0,0.8,0.1,1.1,0.3c0.3,0.2,0.5,0.4,0.7,0.8c0.1,0.3,0.2,0.8,0.2,1.2v3.5H171z"/>
			<path d="M173.9,315.8c-0.5-0.3-0.9-0.6-1.1-1.1c-0.3-0.5-0.4-1-0.4-1.6s0.1-1.2,0.4-1.6s0.7-0.8,1.1-1.1c0.5-0.3,1.1-0.4,1.7-0.4
				c0.7,0,1.2,0.1,1.7,0.4c0.5,0.2,0.8,0.6,1.1,1c0.3,0.5,0.4,1,0.4,1.6c0,0.1,0,0.1,0,0.2s0,0.1,0,0.2h-5.6v-1h4.3L177,313
				c0-0.1,0.1-0.1,0.1-0.2s0-0.2,0-0.2c0-0.3-0.1-0.6-0.2-0.8s-0.3-0.4-0.6-0.5c-0.2-0.1-0.5-0.2-0.8-0.2c-0.4,0-0.7,0.1-1,0.2
				c-0.3,0.2-0.5,0.4-0.6,0.7s-0.2,0.7-0.2,1.1s0.1,0.8,0.2,1.1c0.1,0.3,0.3,0.5,0.6,0.7s0.6,0.2,1,0.2s0.8-0.1,1.1-0.2
				s0.6-0.4,0.8-0.7l1.3,0.5c-0.3,0.5-0.8,0.9-1.3,1.2c-0.5,0.3-1.2,0.4-1.9,0.4C175,316.2,174.4,316,173.9,315.8z"/>
			<path d="M181.2,314.6c0.2,0.2,0.4,0.3,0.6,0.3c0.2,0.1,0.4,0.1,0.6,0.1c0.3,0,0.5-0.1,0.6-0.2s0.2-0.3,0.2-0.5s-0.1-0.3-0.2-0.4
				s-0.3-0.2-0.5-0.3s-0.5-0.2-0.7-0.3c-0.3-0.1-0.6-0.2-0.8-0.4c-0.3-0.1-0.5-0.3-0.7-0.6s-0.3-0.5-0.3-0.9s0.1-0.7,0.3-0.9
				c0.2-0.2,0.5-0.4,0.8-0.5s0.7-0.2,1.1-0.2c0.3,0,0.7,0,1,0.1s0.6,0.2,0.8,0.4c0.2,0.2,0.5,0.3,0.6,0.5l-0.8,0.8
				c-0.2-0.2-0.5-0.4-0.8-0.6c-0.3-0.1-0.6-0.2-0.9-0.2c-0.2,0-0.4,0-0.5,0.1s-0.2,0.2-0.2,0.4c0,0.1,0.1,0.3,0.2,0.4
				c0.1,0.1,0.3,0.2,0.5,0.3c0.2,0.1,0.4,0.2,0.7,0.3c0.3,0.1,0.7,0.3,1,0.4c0.3,0.2,0.5,0.3,0.7,0.6c0.2,0.2,0.3,0.5,0.3,0.9
				c0,0.6-0.2,1-0.6,1.3c-0.4,0.3-1,0.5-1.7,0.5c-0.4,0-0.8-0.1-1.2-0.2s-0.7-0.3-1-0.5s-0.5-0.4-0.7-0.6l0.9-0.8
				C180.8,314.3,181,314.5,181.2,314.6z"/>
			<path d="M59.8,326.8c0.3-0.5,0.7-0.8,1.1-1.1c0.5-0.2,1-0.4,1.5-0.4s1,0.1,1.4,0.4c0.4,0.2,0.7,0.6,0.9,1.1s0.4,1,0.4,1.7
				c0,0.6-0.1,1.2-0.4,1.6c-0.2,0.5-0.6,0.8-0.9,1.1c-0.4,0.2-0.9,0.4-1.4,0.4s-1-0.1-1.5-0.4c-0.5-0.2-0.9-0.6-1.1-1.1
				s-0.4-1-0.4-1.7C59.3,327.8,59.5,327.3,59.8,326.8z M61.1,329.5c0.2,0.3,0.4,0.5,0.7,0.6s0.6,0.2,0.9,0.2c0.3,0,0.6-0.1,0.8-0.2
				c0.3-0.1,0.5-0.4,0.7-0.6c0.2-0.3,0.3-0.6,0.3-1s-0.1-0.7-0.3-1c-0.2-0.3-0.4-0.5-0.7-0.6s-0.6-0.2-0.8-0.2
				c-0.3,0-0.7,0.1-0.9,0.2s-0.5,0.4-0.7,0.6c-0.2,0.3-0.3,0.6-0.3,1C60.9,328.9,61,329.2,61.1,329.5z M66.1,321.4v10h-1.5v-10H66.1
				z"/>
			<path d="M68.3,327.9h4c0-0.3-0.1-0.5-0.2-0.7s-0.3-0.4-0.5-0.5s-0.5-0.2-0.8-0.2s-0.6,0.1-0.9,0.2s-0.5,0.3-0.6,0.6
				c-0.2,0.3-0.2,0.6-0.2,0.9v0.4c0,0.4,0.1,0.8,0.2,1.1s0.4,0.5,0.6,0.6c0.3,0.1,0.6,0.2,0.9,0.2s0.6,0,0.8-0.1
				c0.2-0.1,0.4-0.2,0.6-0.3c0.2-0.1,0.3-0.3,0.4-0.5l1.3,0.5c-0.2,0.3-0.5,0.6-0.7,0.8c-0.3,0.2-0.6,0.4-1,0.6s-0.9,0.2-1.5,0.2
				c-0.7,0-1.2-0.1-1.7-0.4s-0.9-0.6-1.1-1.1c-0.3-0.5-0.4-1-0.4-1.6c0-0.1,0-0.2,0-0.3c0-0.1,0-0.2,0-0.3c0.1-0.5,0.3-0.9,0.6-1.3
				c0.3-0.4,0.6-0.7,1.1-0.9c0.5-0.2,1-0.3,1.6-0.3c0.7,0,1.2,0.1,1.7,0.4s0.8,0.6,1.1,1s0.4,1,0.4,1.6c0,0.1,0,0.1,0,0.2
				s0,0.1,0,0.2h-5.6v-1H68.3z M70.6,324.5l-0.8-0.5l2.1-2.1l1.3,0.6L70.6,324.5z"/>
			<path d="M76.2,330c0.2,0.2,0.4,0.3,0.6,0.3c0.2,0.1,0.4,0.1,0.6,0.1c0.3,0,0.5-0.1,0.6-0.2s0.2-0.3,0.2-0.5s-0.1-0.3-0.2-0.4
				s-0.3-0.2-0.5-0.3c-0.2-0.1-0.5-0.2-0.7-0.3c-0.3-0.1-0.6-0.2-0.8-0.4c-0.3-0.1-0.5-0.3-0.7-0.6c-0.2-0.2-0.3-0.5-0.3-0.9
				s0.1-0.7,0.3-0.9c0.2-0.2,0.5-0.4,0.8-0.5s0.7-0.2,1.1-0.2c0.3,0,0.7,0,1,0.1s0.6,0.2,0.8,0.4c0.2,0.2,0.5,0.3,0.6,0.5l-0.8,0.8
				c-0.2-0.2-0.5-0.4-0.8-0.6c-0.3-0.1-0.6-0.2-0.9-0.2c-0.2,0-0.4,0-0.5,0.1s-0.2,0.2-0.2,0.4c0,0.1,0.1,0.3,0.2,0.4
				s0.3,0.2,0.5,0.3c0.2,0.1,0.4,0.2,0.7,0.3c0.3,0.1,0.7,0.3,1,0.4s0.5,0.3,0.7,0.6c0.2,0.2,0.3,0.5,0.3,0.9c0,0.6-0.2,1-0.6,1.3
				s-1,0.5-1.7,0.5c-0.4,0-0.8-0.1-1.2-0.2c-0.4-0.1-0.7-0.3-0.9-0.5s-0.5-0.4-0.7-0.6l0.9-0.8C75.8,329.7,76,329.9,76.2,330z"/>
			<path d="M81.1,326.9c0.3-0.5,0.7-0.8,1.2-1.1c0.5-0.3,1.1-0.4,1.7-0.4c0.7,0,1.2,0.1,1.7,0.4s0.9,0.6,1.2,1.1s0.5,1,0.5,1.6
				s-0.2,1.1-0.5,1.6s-0.7,0.8-1.2,1.1s-1.1,0.4-1.7,0.4c-0.7,0-1.2-0.1-1.7-0.4s-0.9-0.6-1.2-1.1c-0.3-0.5-0.4-1-0.4-1.6
				S80.8,327.4,81.1,326.9z M82.5,329.5c0.2,0.3,0.4,0.5,0.7,0.7c0.3,0.2,0.6,0.2,1,0.2c0.3,0,0.7-0.1,1-0.2
				c0.3-0.2,0.5-0.4,0.7-0.7s0.2-0.6,0.2-1s-0.1-0.7-0.2-1s-0.4-0.5-0.7-0.7s-0.6-0.2-1-0.2s-0.7,0.1-1,0.2
				c-0.3,0.2-0.5,0.4-0.7,0.7c-0.2,0.3-0.2,0.6-0.2,1C82.2,328.9,82.3,329.2,82.5,329.5z"/>
			<path d="M90.4,321.4v10h-1.5v-10H90.4z"/>
			<path d="M92.7,327.9h4c0-0.3-0.1-0.5-0.2-0.7s-0.3-0.4-0.5-0.5s-0.5-0.2-0.8-0.2s-0.6,0.1-0.9,0.2s-0.5,0.3-0.6,0.6
				c-0.2,0.3-0.2,0.6-0.2,0.9v0.4c0,0.4,0.1,0.8,0.2,1.1s0.4,0.5,0.6,0.6c0.3,0.1,0.6,0.2,0.9,0.2s0.6,0,0.8-0.1
				c0.2-0.1,0.4-0.2,0.6-0.3c0.2-0.1,0.3-0.3,0.4-0.5l1.3,0.5c-0.2,0.3-0.5,0.6-0.7,0.8c-0.3,0.2-0.6,0.4-1,0.6s-0.9,0.2-1.5,0.2
				c-0.7,0-1.2-0.1-1.7-0.4s-0.9-0.6-1.1-1.1c-0.3-0.5-0.4-1-0.4-1.6c0-0.1,0-0.2,0-0.3c0-0.1,0-0.2,0-0.3c0.1-0.5,0.3-0.9,0.6-1.3
				c0.3-0.4,0.6-0.7,1.1-0.9c0.5-0.2,1-0.3,1.6-0.3c0.7,0,1.2,0.1,1.7,0.4s0.8,0.6,1.1,1s0.4,1,0.4,1.6c0,0.1,0,0.1,0,0.2
				s0,0.1,0,0.2h-5.6v-1H92.7z M94.9,324.5l-0.8-0.5l2.1-2.1l1.3,0.6L94.9,324.5z"/>
			<path d="M100.6,330c0.2,0.2,0.4,0.3,0.6,0.3c0.2,0.1,0.4,0.1,0.6,0.1c0.3,0,0.5-0.1,0.6-0.2s0.2-0.3,0.2-0.5s-0.1-0.3-0.2-0.4
				s-0.3-0.2-0.5-0.3c-0.2-0.1-0.5-0.2-0.7-0.3c-0.3-0.1-0.6-0.2-0.8-0.4c-0.3-0.1-0.5-0.3-0.7-0.6c-0.2-0.2-0.3-0.5-0.3-0.9
				s0.1-0.7,0.3-0.9c0.2-0.2,0.5-0.4,0.8-0.5s0.7-0.2,1.1-0.2c0.3,0,0.7,0,1,0.1s0.6,0.2,0.8,0.4c0.2,0.2,0.5,0.3,0.6,0.5l-0.8,0.8
				c-0.2-0.2-0.5-0.4-0.8-0.6c-0.3-0.1-0.6-0.2-0.9-0.2c-0.2,0-0.4,0-0.5,0.1s-0.2,0.2-0.2,0.4c0,0.1,0.1,0.3,0.2,0.4
				s0.3,0.2,0.5,0.3c0.2,0.1,0.4,0.2,0.7,0.3c0.3,0.1,0.7,0.3,1,0.4s0.5,0.3,0.7,0.6c0.2,0.2,0.3,0.5,0.3,0.9c0,0.6-0.2,1-0.6,1.3
				s-1,0.5-1.7,0.5c-0.4,0-0.8-0.1-1.2-0.2c-0.4-0.1-0.7-0.3-0.9-0.5s-0.5-0.4-0.7-0.6l0.9-0.8C100.2,329.7,100.4,329.9,100.6,330z"
				/>
			<path d="M108,330.4l-1.6,3.2l-1.1-0.3l1.2-3.3L108,330.4z"/>
			<path d="M115.5,321.4v10H114v-10H115.5z"/>
			<path d="M118.5,330.1c0.1,0.1,0.2,0.2,0.4,0.3s0.4,0.1,0.6,0.1c0.3,0,0.6-0.1,0.8-0.2s0.4-0.3,0.6-0.5s0.2-0.5,0.2-0.8l0.2,0.8
				c0,0.4-0.1,0.7-0.4,0.9c-0.2,0.3-0.5,0.4-0.9,0.6s-0.7,0.2-1.1,0.2s-0.8-0.1-1.1-0.2c-0.3-0.1-0.6-0.4-0.8-0.6
				c-0.2-0.3-0.3-0.6-0.3-1c0-0.6,0.2-1,0.6-1.4s1-0.5,1.8-0.5c0.4,0,0.8,0,1.1,0.1c0.3,0.1,0.6,0.2,0.8,0.3
				c0.2,0.1,0.3,0.2,0.4,0.3v0.7c-0.3-0.2-0.6-0.3-0.9-0.4s-0.7-0.1-1-0.1s-0.6,0-0.8,0.1c-0.2,0.1-0.3,0.2-0.4,0.3
				c-0.1,0.1-0.1,0.3-0.1,0.5C118.3,329.8,118.4,330,118.5,330.1z M117.2,326.1c0.3-0.2,0.7-0.3,1.1-0.5s1-0.2,1.6-0.2
				c0.5,0,1,0.1,1.4,0.2s0.7,0.4,0.9,0.6c0.2,0.3,0.3,0.6,0.3,1v4.2H121v-3.9c0-0.2,0-0.3-0.1-0.5c-0.1-0.1-0.2-0.2-0.3-0.3
				s-0.3-0.1-0.4-0.2c-0.2,0-0.3-0.1-0.5-0.1c-0.3,0-0.6,0-0.8,0.1s-0.5,0.1-0.7,0.2s-0.3,0.2-0.4,0.2L117.2,326.1z"/>
			<path d="M128.4,334.3v-8.7h1.5v8.7H128.4z M134.7,330.2c-0.3,0.5-0.7,0.8-1.1,1.1c-0.5,0.2-1,0.4-1.5,0.4s-1-0.1-1.4-0.4
				s-0.7-0.6-0.9-1.1s-0.3-1-0.3-1.7c0-0.6,0.1-1.2,0.3-1.7s0.5-0.8,0.9-1.1c0.4-0.3,0.9-0.4,1.4-0.4c0.6,0,1.1,0.1,1.5,0.4
				c0.5,0.2,0.8,0.6,1.1,1.1s0.4,1,0.4,1.7C135.1,329.2,135,329.7,134.7,330.2z M133.3,327.5c-0.2-0.3-0.4-0.5-0.7-0.6
				s-0.6-0.2-1-0.2c-0.3,0-0.6,0.1-0.8,0.2s-0.5,0.3-0.7,0.6c-0.2,0.3-0.3,0.6-0.3,1s0.1,0.7,0.3,1s0.4,0.5,0.7,0.6s0.6,0.2,0.8,0.2
				c0.3,0,0.7-0.1,1-0.2s0.5-0.4,0.7-0.6c0.2-0.3,0.3-0.6,0.3-1S133.5,327.8,133.3,327.5z"/>
			<path d="M137.6,330.1c0.1,0.1,0.2,0.2,0.4,0.3s0.4,0.1,0.6,0.1c0.3,0,0.6-0.1,0.8-0.2s0.4-0.3,0.6-0.5s0.2-0.5,0.2-0.8l0.2,0.8
				c0,0.4-0.1,0.7-0.4,0.9c-0.2,0.3-0.5,0.4-0.9,0.6s-0.7,0.2-1.1,0.2c-0.4,0-0.8-0.1-1.1-0.2s-0.6-0.4-0.8-0.6
				c-0.2-0.3-0.3-0.6-0.3-1c0-0.6,0.2-1,0.6-1.4s1-0.5,1.8-0.5c0.4,0,0.8,0,1.1,0.1s0.6,0.2,0.8,0.3c0.2,0.1,0.3,0.2,0.4,0.3v0.7
				c-0.3-0.2-0.6-0.3-0.9-0.4c-0.3-0.1-0.7-0.1-1-0.1s-0.6,0-0.8,0.1s-0.3,0.2-0.4,0.3c-0.1,0.1-0.1,0.3-0.1,0.5
				C137.5,329.8,137.5,330,137.6,330.1z M136.4,326.1c0.3-0.2,0.7-0.3,1.1-0.5s1-0.2,1.6-0.2c0.5,0,1,0.1,1.4,0.2s0.7,0.4,0.9,0.6
				c0.2,0.3,0.3,0.6,0.3,1v4.2h-1.5v-3.9c0-0.2,0-0.3-0.1-0.5c-0.1-0.1-0.2-0.2-0.3-0.3s-0.3-0.1-0.4-0.2c-0.2,0-0.3-0.1-0.5-0.1
				c-0.3,0-0.6,0-0.8,0.1s-0.5,0.1-0.7,0.2s-0.3,0.2-0.4,0.2L136.4,326.1z"/>
			<path d="M143.4,326.8c0.3-0.5,0.7-0.8,1.1-1s1-0.4,1.5-0.4s1,0.1,1.4,0.4c0.4,0.2,0.7,0.6,0.9,1c0.2,0.5,0.4,1,0.4,1.6
				s-0.1,1.2-0.4,1.6c-0.2,0.5-0.6,0.8-0.9,1c-0.4,0.2-0.9,0.4-1.4,0.4s-1-0.1-1.5-0.4c-0.5-0.2-0.9-0.6-1.1-1
				c-0.3-0.5-0.4-1-0.4-1.6S143.2,327.3,143.4,326.8z M144.6,331.9c0,0.3,0.1,0.5,0.2,0.7c0.2,0.2,0.4,0.4,0.6,0.5
				c0.3,0.1,0.6,0.2,0.9,0.2c0.3,0,0.6-0.1,0.9-0.2c0.3-0.1,0.5-0.3,0.7-0.6c0.2-0.3,0.3-0.6,0.3-1.1v-5.8h1.5v5.8
				c0,0.7-0.2,1.3-0.5,1.8s-0.7,0.8-1.2,1s-1,0.3-1.6,0.3c-0.7,0-1.3-0.1-1.8-0.3c-0.5-0.2-0.9-0.5-1.1-0.9s-0.4-0.8-0.4-1.4H144.6z
				 M144.8,329.5c0.2,0.3,0.4,0.5,0.7,0.6s0.6,0.2,0.9,0.2c0.3,0,0.6-0.1,0.8-0.2c0.3-0.1,0.5-0.3,0.7-0.6s0.3-0.6,0.3-1
				c0-0.3-0.1-0.6-0.2-0.8c-0.1-0.2-0.2-0.4-0.4-0.6s-0.4-0.3-0.6-0.4s-0.4-0.1-0.6-0.1c-0.3,0-0.7,0.1-0.9,0.2
				c-0.3,0.1-0.5,0.3-0.7,0.6c-0.2,0.3-0.3,0.6-0.3,1C144.6,328.9,144.6,329.2,144.8,329.5z"/>
			<path d="M152.6,331.2c-0.5-0.3-0.9-0.6-1.1-1.1c-0.3-0.5-0.4-1-0.4-1.6s0.1-1.2,0.4-1.6s0.7-0.8,1.1-1.1c0.5-0.3,1.1-0.4,1.7-0.4
				c0.7,0,1.2,0.1,1.7,0.4c0.5,0.2,0.8,0.6,1.1,1c0.3,0.5,0.4,1,0.4,1.6c0,0.1,0,0.1,0,0.2s0,0.1,0,0.2H152v-1h4.3l-0.5,0.6
				c0-0.1,0.1-0.1,0.1-0.2s0-0.2,0-0.2c0-0.3-0.1-0.6-0.2-0.8s-0.3-0.4-0.6-0.5c-0.2-0.1-0.5-0.2-0.8-0.2c-0.4,0-0.7,0.1-1,0.2
				c-0.3,0.2-0.5,0.4-0.6,0.7s-0.2,0.7-0.2,1.1s0.1,0.8,0.2,1.1c0.1,0.3,0.3,0.5,0.6,0.7s0.6,0.2,1,0.2s0.8-0.1,1.1-0.2
				s0.6-0.4,0.8-0.7l1.3,0.5c-0.3,0.5-0.8,0.9-1.3,1.2c-0.5,0.3-1.2,0.4-1.9,0.4C153.7,331.6,153.1,331.5,152.6,331.2z"/>
			<path d="M163,326.8c0.3-0.5,0.7-0.8,1.1-1.1c0.5-0.2,1-0.4,1.5-0.4s1,0.1,1.4,0.4s0.7,0.6,0.9,1.1s0.3,1,0.3,1.7
				c0,0.6-0.1,1.2-0.3,1.7s-0.5,0.8-0.9,1.1c-0.4,0.3-0.9,0.4-1.4,0.4s-1-0.1-1.5-0.4s-0.9-0.6-1.1-1.1s-0.4-1-0.4-1.7
				S162.8,327.3,163,326.8z M164.4,329.5c0.2,0.3,0.4,0.5,0.7,0.6s0.6,0.2,0.9,0.2c0.3,0,0.6-0.1,0.8-0.2c0.3-0.1,0.5-0.3,0.7-0.6
				s0.3-0.6,0.3-1s-0.1-0.7-0.3-1s-0.4-0.5-0.7-0.6s-0.6-0.2-0.8-0.2c-0.3,0-0.7,0.1-0.9,0.2s-0.5,0.4-0.7,0.6
				c-0.2,0.3-0.3,0.6-0.3,1C164.2,328.9,164.2,329.2,164.4,329.5z M167.9,325.5h1.5v8.7h-1.5V325.5z"/>
			<path d="M173,330.1c0.2,0.2,0.5,0.3,0.9,0.3c0.3,0,0.5-0.1,0.7-0.2s0.4-0.3,0.5-0.5s0.2-0.4,0.2-0.7v-3.6h1.5v5.9h-1.5v-0.9
				c-0.2,0.3-0.5,0.6-0.8,0.8s-0.7,0.3-1.1,0.3c-0.7,0-1.2-0.2-1.6-0.6c-0.4-0.4-0.6-1-0.6-1.7v-3.8h1.5v3.6
				C172.7,329.6,172.8,329.9,173,330.1z"/>
			<path d="M179.8,331.2c-0.5-0.3-0.9-0.6-1.1-1.1c-0.3-0.5-0.4-1-0.4-1.6s0.1-1.2,0.4-1.6s0.7-0.8,1.1-1.1c0.5-0.3,1.1-0.4,1.7-0.4
				c0.7,0,1.2,0.1,1.7,0.4c0.5,0.2,0.8,0.6,1.1,1c0.3,0.5,0.4,1,0.4,1.6c0,0.1,0,0.1,0,0.2s0,0.1,0,0.2h-5.6v-1h4.3l-0.5,0.6
				c0-0.1,0.1-0.1,0.1-0.2s0-0.2,0-0.2c0-0.3-0.1-0.6-0.2-0.8s-0.3-0.4-0.6-0.5c-0.2-0.1-0.5-0.2-0.8-0.2c-0.4,0-0.7,0.1-1,0.2
				c-0.3,0.2-0.5,0.4-0.6,0.7s-0.2,0.7-0.2,1.1s0.1,0.8,0.2,1.1c0.1,0.3,0.3,0.5,0.6,0.7s0.6,0.2,1,0.2s0.8-0.1,1.1-0.2
				s0.6-0.4,0.8-0.7l1.3,0.5c-0.3,0.5-0.8,0.9-1.3,1.2c-0.5,0.3-1.2,0.4-1.9,0.4C180.8,331.6,180.2,331.5,179.8,331.2z"/>
			<path d="M100.2,341l1.7,3.8l1.7-3.8h1.6l-3.3,6.5l-3.3-6.5H100.2z"/>
			<path d="M106,342.3c0.3-0.5,0.7-0.8,1.2-1.1c0.5-0.3,1.1-0.4,1.7-0.4s1.2,0.1,1.7,0.4s0.9,0.6,1.2,1.1s0.5,1,0.5,1.6
				s-0.2,1.1-0.5,1.6s-0.7,0.8-1.2,1.1c-0.5,0.3-1.1,0.4-1.7,0.4s-1.2-0.1-1.7-0.4s-0.9-0.6-1.2-1.1s-0.4-1-0.4-1.6
				S105.7,342.8,106,342.3z M107.4,344.9c0.2,0.3,0.4,0.5,0.7,0.7c0.3,0.2,0.6,0.2,1,0.2c0.3,0,0.7-0.1,1-0.2
				c0.3-0.2,0.5-0.4,0.7-0.7c0.2-0.3,0.2-0.6,0.2-1s-0.1-0.7-0.2-1c-0.2-0.3-0.4-0.5-0.7-0.7s-0.6-0.2-1-0.2s-0.7,0.1-1,0.2
				s-0.5,0.4-0.7,0.7s-0.2,0.6-0.2,1C107.1,344.3,107.2,344.6,107.4,344.9z"/>
			<path d="M115.6,345.6c0.2,0.2,0.5,0.3,0.9,0.3c0.3,0,0.5-0.1,0.7-0.2s0.4-0.3,0.5-0.5s0.2-0.4,0.2-0.7V341h1.5v5.9h-1.5V346
				c-0.2,0.3-0.5,0.6-0.8,0.8s-0.7,0.3-1.1,0.3c-0.7,0-1.2-0.2-1.6-0.6s-0.6-1-0.6-1.7V341h1.5v3.6
				C115.3,345,115.4,345.3,115.6,345.6z"/>
			<path d="M122.2,345.5c0.2,0.2,0.4,0.3,0.6,0.3c0.2,0.1,0.4,0.1,0.6,0.1c0.3,0,0.5-0.1,0.6-0.2s0.2-0.3,0.2-0.5s-0.1-0.3-0.2-0.4
				s-0.3-0.2-0.5-0.3s-0.5-0.2-0.7-0.3c-0.3-0.1-0.6-0.2-0.8-0.4c-0.3-0.1-0.5-0.3-0.7-0.6s-0.3-0.5-0.3-0.9s0.1-0.7,0.3-0.9
				c0.2-0.2,0.5-0.4,0.8-0.5s0.7-0.2,1.1-0.2c0.3,0,0.7,0,1,0.1s0.6,0.2,0.8,0.4c0.2,0.2,0.5,0.3,0.6,0.5l-0.8,0.8
				c-0.2-0.2-0.5-0.4-0.8-0.6c-0.3-0.1-0.6-0.2-0.9-0.2c-0.2,0-0.4,0-0.5,0.1s-0.2,0.2-0.2,0.4c0,0.1,0.1,0.3,0.2,0.4
				s0.3,0.2,0.5,0.3c0.2,0.1,0.4,0.2,0.7,0.3c0.3,0.1,0.7,0.3,1,0.4c0.3,0.2,0.5,0.3,0.7,0.6c0.2,0.2,0.3,0.5,0.3,0.9
				c0,0.6-0.2,1-0.6,1.3s-1,0.5-1.7,0.5c-0.4,0-0.8-0.1-1.2-0.2c-0.4-0.1-0.7-0.3-1-0.5s-0.5-0.4-0.7-0.6l0.9-0.8
				C121.8,345.2,122,345.3,122.2,345.5z"/>
			<path d="M132.5,344.9c0.2,0.3,0.4,0.5,0.7,0.7s0.6,0.2,1,0.2c0.3,0,0.6,0,0.9-0.1c0.3-0.1,0.5-0.2,0.7-0.4
				c0.2-0.2,0.4-0.3,0.5-0.5v1.5c-0.2,0.2-0.5,0.4-0.9,0.5s-0.8,0.2-1.2,0.2c-0.7,0-1.2-0.1-1.8-0.4s-0.9-0.6-1.2-1.1
				s-0.4-1-0.4-1.6s0.1-1.1,0.4-1.6c0.3-0.5,0.7-0.8,1.2-1.1s1.1-0.4,1.8-0.4c0.4,0,0.9,0.1,1.2,0.2c0.4,0.1,0.7,0.3,0.9,0.5v1.5
				c-0.1-0.2-0.3-0.4-0.5-0.5c-0.2-0.2-0.5-0.3-0.7-0.4c-0.3-0.1-0.6-0.1-0.9-0.1c-0.4,0-0.7,0.1-1,0.2c-0.3,0.2-0.5,0.4-0.7,0.7
				c-0.2,0.3-0.3,0.6-0.3,1C132.3,344.3,132.4,344.6,132.5,344.9z"/>
			<path d="M139.4,346.9h-1.5v-10h1.5V346.9z M141.7,342.3c-0.2-0.2-0.5-0.3-0.9-0.3c-0.3,0-0.5,0.1-0.7,0.2s-0.4,0.3-0.5,0.5
				s-0.2,0.4-0.2,0.7H139c0-0.5,0.1-0.9,0.3-1.3s0.4-0.7,0.8-0.9c0.3-0.2,0.7-0.3,1.2-0.3s0.9,0.1,1.2,0.3c0.3,0.2,0.6,0.4,0.7,0.8
				s0.2,0.8,0.2,1.3v3.8H142v-3.6C142,342.9,141.9,342.5,141.7,342.3z"/>
			<path d="M146.5,346.6c-0.5-0.3-0.9-0.6-1.1-1.1c-0.3-0.5-0.4-1-0.4-1.6s0.1-1.2,0.4-1.6s0.7-0.8,1.1-1.1c0.5-0.3,1.1-0.4,1.7-0.4
				c0.7,0,1.2,0.1,1.7,0.4c0.5,0.2,0.8,0.6,1.1,1c0.3,0.5,0.4,1,0.4,1.6c0,0.1,0,0.1,0,0.2s0,0.1,0,0.2h-5.6v-1h4.3l-0.5,0.6
				c0-0.1,0.1-0.1,0.1-0.2s0-0.2,0-0.2c0-0.3-0.1-0.6-0.2-0.8s-0.3-0.4-0.6-0.5c-0.2-0.1-0.5-0.2-0.8-0.2c-0.4,0-0.7,0.1-1,0.2
				c-0.3,0.2-0.5,0.4-0.6,0.7s-0.2,0.7-0.2,1.1s0.1,0.8,0.2,1.1c0.1,0.3,0.3,0.5,0.6,0.7s0.6,0.2,1,0.2s0.8-0.1,1.1-0.2
				s0.6-0.4,0.8-0.7l1.3,0.5c-0.3,0.5-0.8,0.9-1.3,1.2c-0.5,0.3-1.2,0.4-1.9,0.4C147.5,347,147,346.9,146.5,346.6z"/>
			<path d="M154.3,346.9h-1.5V341h1.5V346.9z M155.8,342.2c-0.1-0.1-0.3-0.1-0.5-0.1s-0.5,0.1-0.6,0.2c-0.2,0.1-0.3,0.3-0.3,0.5
				c-0.1,0.2-0.1,0.5-0.1,0.7l-0.5-0.3c0-0.5,0.1-0.9,0.3-1.3s0.4-0.7,0.7-0.9c0.3-0.2,0.6-0.3,0.9-0.3c0.2,0,0.4,0,0.6,0.1
				c0.2,0.1,0.4,0.2,0.5,0.3l-0.7,1.2C156,342.3,155.9,342.3,155.8,342.2z"/>
			<path d="M159.2,344.9c0.2,0.3,0.4,0.5,0.7,0.7s0.6,0.2,1,0.2c0.3,0,0.6,0,0.9-0.1c0.3-0.1,0.5-0.2,0.7-0.4
				c0.2-0.2,0.4-0.3,0.5-0.5v1.5c-0.2,0.2-0.5,0.4-0.9,0.5s-0.8,0.2-1.2,0.2c-0.7,0-1.2-0.1-1.8-0.4s-0.9-0.6-1.2-1.1
				s-0.4-1-0.4-1.6s0.1-1.1,0.4-1.6c0.3-0.5,0.7-0.8,1.2-1.1s1.1-0.4,1.8-0.4c0.4,0,0.9,0.1,1.2,0.2c0.4,0.1,0.7,0.3,0.9,0.5v1.5
				c-0.1-0.2-0.3-0.4-0.5-0.5c-0.2-0.2-0.5-0.3-0.7-0.4c-0.3-0.1-0.6-0.1-0.9-0.1c-0.4,0-0.7,0.1-1,0.2c-0.3,0.2-0.5,0.4-0.7,0.7
				c-0.2,0.3-0.3,0.6-0.3,1C158.9,344.3,159,344.6,159.2,344.9z"/>
			<path d="M166.1,346.9h-1.5v-10h1.5V346.9z M168.4,342.3c-0.2-0.2-0.5-0.3-0.9-0.3c-0.3,0-0.5,0.1-0.7,0.2s-0.4,0.3-0.5,0.5
				s-0.2,0.4-0.2,0.7h-0.4c0-0.5,0.1-0.9,0.3-1.3s0.4-0.7,0.8-0.9c0.3-0.2,0.7-0.3,1.2-0.3s0.9,0.1,1.2,0.3c0.3,0.2,0.6,0.4,0.7,0.8
				s0.2,0.8,0.2,1.3v3.8h-1.5v-3.6C168.6,342.9,168.5,342.5,168.4,342.3z"/>
			<path d="M173.1,346.6c-0.5-0.3-0.9-0.6-1.1-1.1c-0.3-0.5-0.4-1-0.4-1.6s0.1-1.2,0.4-1.6s0.7-0.8,1.1-1.1c0.5-0.3,1.1-0.4,1.7-0.4
				c0.7,0,1.2,0.1,1.7,0.4c0.5,0.2,0.8,0.6,1.1,1c0.3,0.5,0.4,1,0.4,1.6c0,0.1,0,0.1,0,0.2s0,0.1,0,0.2h-5.6v-1h4.3l-0.5,0.6
				c0-0.1,0.1-0.1,0.1-0.2s0-0.2,0-0.2c0-0.3-0.1-0.6-0.2-0.8s-0.3-0.4-0.6-0.5c-0.2-0.1-0.5-0.2-0.8-0.2c-0.4,0-0.7,0.1-1,0.2
				c-0.3,0.2-0.5,0.4-0.6,0.7s-0.2,0.7-0.2,1.1s0.1,0.8,0.2,1.1c0.1,0.3,0.3,0.5,0.6,0.7s0.6,0.2,1,0.2s0.8-0.1,1.1-0.2
				s0.6-0.4,0.8-0.7l1.3,0.5c-0.3,0.5-0.8,0.9-1.3,1.2c-0.5,0.3-1.2,0.4-1.9,0.4C174.1,347,173.6,346.9,173.1,346.6z"/>
			<path d="M179.2,342.3V341h5.8l-3.6,4.6h3.3v1.3h-5.9l3.7-4.6H179.2z"/>
			<path d="M114.8,357.7c-0.2-0.2-0.5-0.3-0.9-0.3c-0.3,0-0.5,0.1-0.7,0.2s-0.4,0.3-0.5,0.5s-0.2,0.4-0.2,0.7v3.6H111v-5.9h1.5v0.9
				c0.2-0.4,0.5-0.6,0.8-0.8c0.3-0.2,0.7-0.3,1.1-0.3c0.7,0,1.3,0.2,1.6,0.6c0.4,0.4,0.6,1,0.6,1.7v3.8h-1.5v-3.6
				C115.1,358.3,115,358,114.8,357.7z"/>
			<path d="M120.7,353.3l-1.4,3.1h-1l0.8-3.1H120.7z"/>
			<path d="M123.6,362.1c-0.5-0.3-0.9-0.6-1.1-1.1c-0.3-0.5-0.4-1-0.4-1.6s0.1-1.2,0.4-1.6s0.7-0.8,1.1-1.1c0.5-0.3,1.1-0.4,1.7-0.4
				c0.7,0,1.2,0.1,1.7,0.4c0.5,0.2,0.8,0.6,1.1,1c0.3,0.5,0.4,1,0.4,1.6c0,0.1,0,0.1,0,0.2s0,0.1,0,0.2H123v-1h4.3l-0.5,0.6
				c0-0.1,0.1-0.1,0.1-0.2s0-0.2,0-0.2c0-0.3-0.1-0.6-0.2-0.8s-0.3-0.4-0.6-0.5c-0.2-0.1-0.5-0.2-0.8-0.2c-0.4,0-0.7,0.1-1,0.2
				c-0.3,0.2-0.5,0.4-0.6,0.7s-0.2,0.7-0.2,1.1s0.1,0.8,0.2,1.1c0.1,0.3,0.3,0.5,0.6,0.7s0.6,0.2,1,0.2s0.8-0.1,1.1-0.2
				s0.6-0.4,0.8-0.7l1.3,0.5c-0.3,0.5-0.8,0.9-1.3,1.2c-0.5,0.3-1.2,0.4-1.9,0.4C124.7,362.4,124.1,362.3,123.6,362.1z"/>
			<path d="M135.3,356.4l-2.3,2.9l2.4,3h-1.7l-1.5-2l-1.5,2H129l2.4-3l-2.3-2.9h1.7l1.4,1.9l1.4-1.9H135.3z"/>
			<path d="M136.6,353.4c0.2-0.2,0.4-0.2,0.7-0.2s0.5,0.1,0.7,0.2s0.3,0.4,0.3,0.6s-0.1,0.4-0.3,0.6s-0.4,0.3-0.7,0.3
				c-0.2,0-0.5-0.1-0.7-0.3c-0.2-0.2-0.3-0.4-0.3-0.6S136.4,353.6,136.6,353.4z M138,356.4v5.9h-1.5v-5.9H138z"/>
			<path d="M141,360.9c0.2,0.2,0.4,0.3,0.6,0.3c0.2,0.1,0.4,0.1,0.6,0.1c0.3,0,0.5-0.1,0.6-0.2s0.2-0.3,0.2-0.5s-0.1-0.3-0.2-0.4
				s-0.3-0.2-0.5-0.3s-0.5-0.2-0.7-0.3c-0.3-0.1-0.6-0.2-0.8-0.4c-0.3-0.1-0.5-0.3-0.7-0.6s-0.3-0.5-0.3-0.9s0.1-0.7,0.3-0.9
				c0.2-0.2,0.5-0.4,0.8-0.5s0.7-0.2,1.1-0.2c0.3,0,0.7,0,1,0.1s0.6,0.2,0.8,0.4c0.2,0.2,0.5,0.3,0.6,0.5l-0.8,0.8
				c-0.2-0.2-0.5-0.4-0.8-0.6c-0.3-0.1-0.6-0.2-0.9-0.2c-0.2,0-0.4,0-0.5,0.1s-0.2,0.2-0.2,0.4c0,0.1,0.1,0.3,0.2,0.4
				c0.1,0.1,0.3,0.2,0.5,0.3c0.2,0.1,0.4,0.2,0.7,0.3c0.3,0.1,0.7,0.3,1,0.4c0.3,0.2,0.5,0.3,0.7,0.6c0.2,0.2,0.3,0.5,0.3,0.9
				c0,0.6-0.2,1-0.6,1.3c-0.4,0.3-1,0.5-1.7,0.5c-0.4,0-0.8-0.1-1.2-0.2s-0.7-0.3-1-0.5s-0.5-0.4-0.7-0.6l0.9-0.8
				C140.5,360.6,140.7,360.8,141,360.9z"/>
			<path d="M148.6,356.4v1.2H145v-1.2H148.6z M147.5,354.3v8H146v-8H147.5z"/>
			<path d="M150.7,362.1c-0.5-0.3-0.9-0.6-1.1-1.1c-0.3-0.5-0.4-1-0.4-1.6s0.1-1.2,0.4-1.6s0.7-0.8,1.1-1.1c0.5-0.3,1.1-0.4,1.7-0.4
				c0.7,0,1.2,0.1,1.7,0.4c0.5,0.2,0.8,0.6,1.1,1c0.3,0.5,0.4,1,0.4,1.6c0,0.1,0,0.1,0,0.2s0,0.1,0,0.2H150v-1h4.3l-0.5,0.6
				c0-0.1,0.1-0.1,0.1-0.2s0-0.2,0-0.2c0-0.3-0.1-0.6-0.2-0.8s-0.3-0.4-0.6-0.5c-0.2-0.1-0.5-0.2-0.8-0.2c-0.4,0-0.7,0.1-1,0.2
				c-0.3,0.2-0.5,0.4-0.6,0.7s-0.2,0.7-0.2,1.1s0.1,0.8,0.2,1.1c0.1,0.3,0.3,0.5,0.6,0.7s0.6,0.2,1,0.2s0.8-0.1,1.1-0.2
				s0.6-0.4,0.8-0.7l1.3,0.5c-0.3,0.5-0.8,0.9-1.3,1.2c-0.5,0.3-1.2,0.4-1.9,0.4C151.7,362.4,151.2,362.3,150.7,362.1z"/>
			<path d="M161.1,365.1v-8.7h1.5v8.7H161.1z M167.4,361c-0.3,0.5-0.7,0.8-1.1,1.1c-0.5,0.2-1,0.4-1.5,0.4s-1-0.1-1.4-0.4
				s-0.7-0.6-0.9-1.1s-0.3-1-0.3-1.7c0-0.6,0.1-1.2,0.3-1.7s0.5-0.8,0.9-1.1c0.4-0.3,0.9-0.4,1.4-0.4c0.6,0,1.1,0.1,1.5,0.4
				c0.5,0.2,0.8,0.6,1.1,1.1s0.4,1,0.4,1.7C167.8,360,167.7,360.6,167.4,361z M166,358.4c-0.2-0.3-0.4-0.5-0.7-0.6s-0.6-0.2-1-0.2
				c-0.3,0-0.6,0.1-0.8,0.2s-0.5,0.3-0.7,0.6c-0.2,0.3-0.3,0.6-0.3,1s0.1,0.7,0.3,1s0.4,0.5,0.7,0.6s0.6,0.2,0.8,0.2
				c0.3,0,0.7-0.1,1-0.2s0.5-0.4,0.7-0.6c0.2-0.3,0.3-0.6,0.3-1S166.2,358.6,166,358.4z"/>
			<path d="M170.7,352.3v10h-1.5v-10H170.7z"/>
			<path d="M174.5,361c0.2,0.2,0.5,0.3,0.9,0.3c0.3,0,0.5-0.1,0.7-0.2s0.4-0.3,0.5-0.5s0.2-0.4,0.2-0.7v-3.6h1.5v5.9h-1.5v-0.9
				c-0.2,0.3-0.5,0.6-0.8,0.8s-0.7,0.3-1.1,0.3c-0.7,0-1.2-0.2-1.6-0.6c-0.4-0.4-0.6-1-0.6-1.7v-3.8h1.5v3.6
				C174.2,360.4,174.3,360.8,174.5,361z"/>
			<path d="M181,360.9c0.2,0.2,0.4,0.3,0.6,0.3c0.2,0.1,0.4,0.1,0.6,0.1c0.3,0,0.5-0.1,0.6-0.2s0.2-0.3,0.2-0.5s-0.1-0.3-0.2-0.4
				s-0.3-0.2-0.5-0.3s-0.5-0.2-0.7-0.3c-0.3-0.1-0.6-0.2-0.8-0.4c-0.3-0.1-0.5-0.3-0.7-0.6s-0.3-0.5-0.3-0.9s0.1-0.7,0.3-0.9
				c0.2-0.2,0.5-0.4,0.8-0.5s0.7-0.2,1.1-0.2c0.3,0,0.7,0,1,0.1s0.6,0.2,0.8,0.4c0.2,0.2,0.5,0.3,0.6,0.5l-0.8,0.8
				c-0.2-0.2-0.5-0.4-0.8-0.6c-0.3-0.1-0.6-0.2-0.9-0.2c-0.2,0-0.4,0-0.5,0.1s-0.2,0.2-0.2,0.4c0,0.1,0.1,0.3,0.2,0.4
				c0.1,0.1,0.3,0.2,0.5,0.3c0.2,0.1,0.4,0.2,0.7,0.3c0.3,0.1,0.7,0.3,1,0.4c0.3,0.2,0.5,0.3,0.7,0.6c0.2,0.2,0.3,0.5,0.3,0.9
				c0,0.6-0.2,1-0.6,1.3c-0.4,0.3-1,0.5-1.7,0.5c-0.4,0-0.8-0.1-1.2-0.2s-0.7-0.3-1-0.5s-0.5-0.4-0.7-0.6l0.9-0.8
				C180.6,360.6,180.8,360.8,181,360.9z"/>
			<path d="M186.5,361c0.2-0.2,0.4-0.3,0.7-0.3s0.5,0.1,0.7,0.3s0.3,0.4,0.3,0.6s-0.1,0.5-0.3,0.6c-0.2,0.2-0.4,0.3-0.7,0.3
				s-0.5-0.1-0.7-0.3c-0.2-0.2-0.3-0.4-0.3-0.6S186.3,361.2,186.5,361z"/>
		</g>
	</g>
	<path d="M166.4,261.3c-0.6,0-1.1-0.5-1.1-1.1v-49.2l-14.6-17.4h-29.9c-1.4,0-2.8,0.6-3.8,1.7s-1.6,2.5-1.6,3.9V215l0,0
		c0,0.6-0.5,1.1-1.1,1.1s-1.1-0.5-1.1-1.1v-15.8l0,0c0-2.1,0.8-4.1,2.2-5.6c1.4-1.5,3.4-2.3,5.4-2.3h30.8l15.8,18.7v50.1
		C167.4,260.8,166.9,261.3,166.4,261.3L166.4,261.3z"/>
	<path d="M158.8,210.5h-7c-1,0-2-0.4-2.7-1.1c-0.7-0.7-1.1-1.7-1.1-2.7v-8.4c0-0.6,0.5-1.1,1.1-1.1s1.1,0.5,1.1,1.1v8.4l0,0
		c0,0.9,0.8,1.7,1.7,1.7h7l0,0c0.3,0,0.6,0.1,0.8,0.3s0.3,0.5,0.3,0.8s-0.1,0.6-0.3,0.8C159.4,210.4,159.1,210.5,158.8,210.5
		L158.8,210.5z"/>
</g>
</svg>
